<?xml version="1.0" standalone="no"?>
<!DOCTYPE svg PUBLIC "-//W3C//DTD SVG 20010904//EN"
 "http://www.w3.org/TR/2001/REC-SVG-20010904/DTD/svg10.dtd">
<svg version="1.0" xmlns="http://www.w3.org/2000/svg"
 width="200.000000pt" height="200.000000pt" viewBox="0 0 200.000000 200.000000"
 preserveAspectRatio="xMidYMid meet">
<metadata>
Created by potrace 1.16, written by Peter Selinger 2001-2019
</metadata>
<g transform="translate(0.000000,200.000000) scale(0.100000,-0.100000)"
fill="#000000" stroke="none">
<path d="M919 1884 l-76 -76 -45 26 -45 26 -123 -212 c-68 -117 -134 -237
-146 -268 -120 -297 46 -636 359 -731 90 -28 252 -23 342 9 306 112 454 478
309 765 -24 46 -203 356 -240 414 l-14 22 -43 -24 -43 -24 -74 74 c-41 41 -77
75 -80 75 -3 0 -39 -34 -81 -76z m153 -101 l67 -67 36 17 c20 9 37 17 39 17 7
0 197 -329 221 -383 49 -107 52 -247 8 -360 -20 -52 -74 -135 -107 -166 l-24
-23 -64 31 c-35 17 -96 39 -135 48 l-73 17 0 38 0 37 145 3 145 3 -40 65 c-21
36 -39 68 -40 72 0 4 18 8 40 10 l39 3 -166 283 -165 282 -160 -272 c-88 -150
-162 -278 -165 -285 -3 -8 9 -13 35 -15 l40 -3 -38 -65 c-22 -36 -39 -68 -40
-72 0 -5 65 -8 145 -8 l145 0 0 -39 0 -39 -65 -12 c-36 -7 -98 -28 -138 -47
l-72 -35 -45 49 c-116 126 -151 323 -87 482 18 45 201 372 224 401 3 2 21 -5
42 -17 l38 -22 69 70 c37 38 71 69 73 69 3 0 36 -30 73 -67z m26 -393 c50 -87
92 -161 92 -164 0 -3 -16 -6 -35 -6 -19 0 -35 -4 -35 -9 0 -5 16 -37 36 -71
20 -33 35 -63 32 -66 -3 -2 -91 -3 -196 -2 l-192 3 40 65 c21 36 39 68 40 72
0 4 -18 8 -40 10 l-39 3 96 163 c52 89 98 162 102 162 3 0 48 -72 99 -160z
m75 -589 c31 -12 57 -27 57 -32 0 -15 -87 -49 -161 -61 -83 -14 -183 -1 -261
34 l-53 25 42 21 c65 34 109 41 218 38 74 -2 115 -8 158 -25z"/>
<path d="M800 461 c0 -20 -6 -30 -20 -34 -23 -6 -27 -37 -5 -37 12 0 15 -14
15 -68 0 -82 12 -101 68 -109 40 -5 42 -4 42 20 0 19 -6 26 -22 29 -21 3 -23
9 -26 66 -3 61 -2 62 23 62 18 0 25 5 25 20 0 15 -7 20 -25 20 -21 0 -25 5
-25 30 0 25 -4 30 -25 30 -21 0 -25 -5 -25 -29z"/>
<path d="M960 461 c0 -20 -6 -30 -20 -34 -23 -6 -27 -37 -5 -37 12 0 15 -14
15 -68 0 -82 12 -101 68 -109 40 -5 42 -4 42 20 0 19 -6 26 -22 29 -21 3 -23
9 -26 66 -3 61 -2 62 23 62 18 0 25 5 25 20 0 15 -7 20 -25 20 -21 0 -25 5
-25 30 0 25 -4 30 -25 30 -21 0 -25 -5 -25 -29z"/>
<path d="M1159 432 c-38 -4 -61 -34 -66 -85 -7 -60 12 -116 44 -128 48 -18
133 -7 133 17 0 9 -12 14 -34 14 -46 0 -86 16 -86 35 0 10 10 15 34 15 77 0
111 40 84 98 -14 28 -54 40 -109 34z"/>
<path d="M566 417 c-23 -17 -36 -87 -26 -134 13 -54 32 -68 96 -68 75 0 94 22
94 111 0 84 -18 104 -93 104 -29 0 -61 -6 -71 -13z"/>
<path d="M1320 319 l0 -110 28 3 c26 3 27 5 30 75 3 70 4 73 30 79 48 10 52
13 52 39 0 20 -5 25 -24 25 -14 0 -31 -7 -40 -15 -8 -8 -17 -15 -20 -15 -3 0
-6 7 -6 15 0 9 -9 15 -25 15 l-25 0 0 -111z"/>
</g>
</svg>
