<?xml version="1.0" standalone="no"?>
<!DOCTYPE svg PUBLIC "-//W3C//DTD SVG 20010904//EN"
 "http://www.w3.org/TR/2001/REC-SVG-20010904/DTD/svg10.dtd">
<svg version="1.0" xmlns="http://www.w3.org/2000/svg"
 width="54.000000pt" height="58.000000pt" viewBox="0 0 54.000000 58.000000"
 preserveAspectRatio="xMidYMid meet">
<metadata>
Created by potrace 1.16, written by Peter Selinger 2001-2019
</metadata>
<g transform="translate(0.000000,58.000000) scale(0.100000,-0.100000)"
fill="#000000" stroke="none">
<path d="M233 529 c-25 -26 -34 -29 -50 -21 -17 10 -25 1 -71 -76 -63 -107
-72 -131 -72 -188 0 -124 99 -218 227 -218 80 1 144 37 188 108 25 41 30 60
30 110 0 52 -6 71 -39 131 -75 134 -86 148 -102 134 -12 -10 -21 -7 -47 19
l-33 32 -31 -31z m104 -58 c7 7 23 -10 55 -63 73 -119 82 -163 49 -233 -35
-75 -38 -77 -101 -55 -31 10 -56 25 -58 34 -3 13 7 16 58 16 l61 0 -21 30
c-21 30 -21 30 -1 30 17 0 11 15 -46 110 -43 71 -70 107 -76 101 -5 -5 -36
-54 -68 -108 -44 -73 -55 -99 -44 -101 13 -3 13 -7 0 -33 l-16 -29 61 0 c53 0
61 -2 58 -17 -2 -10 -16 -20 -33 -23 -17 -4 -40 -12 -53 -19 -29 -15 -45 -4
-73 50 -34 68 -26 121 33 226 43 75 55 90 69 83 12 -7 23 -2 44 21 l29 29 31
-30 c22 -21 34 -27 42 -19z m3 -207 c0 -2 -7 -4 -16 -4 -15 0 -15 -2 0 -25 9
-13 16 -27 16 -30 0 -3 -36 -5 -81 -5 l-80 0 15 22 c20 28 20 38 2 38 -11 0
-3 21 26 71 l41 71 38 -67 c22 -37 39 -68 39 -71z"/>
</g>
</svg>
